<svg width="220" height="64" viewBox="0 0 220 64" fill="none" xmlns="http://www.w3.org/2000/svg">
<path d="M40.1165 35.8323C37.8325 32.3756 36.4217 28.7026 36.2617 24.6316C36.2323 23.8824 35.9006 23.9028 35.3593 24.1614C33.1982 25.1942 31.0338 26.2205 28.8695 27.2469C26.6447 28.3021 24.4253 29.3686 22.1905 30.4035C20.6719 31.1068 19.2743 30.6966 18.6497 29.4133C18.073 28.2286 18.7037 26.9461 20.206 26.2205C25.3695 23.7264 30.5275 21.2216 35.6977 18.7408C36.3188 18.4428 36.6689 18.0581 36.86 17.3833C39.0516 9.64475 43.999 4.28124 51.7094 1.45815C56.8054 -0.407688 62.0166 -0.490585 67.1805 1.25381C75.7658 4.15397 81.0348 10.0772 82.8689 18.6374C85.0001 28.5844 80.2945 38.7956 70.2631 43.5655C65.5974 45.7841 60.7211 46.491 55.6034 45.756C54.2434 45.5607 53.0202 44.9729 51.7687 44.4759C50.7887 44.0867 49.9247 44.1355 48.9607 44.6363C46.2069 46.0667 43.4039 47.4076 40.6126 48.7688C39.9807 49.077 39.334 49.44 38.5821 49.1682C37.637 48.8267 36.8575 48.2617 36.7701 47.2227C36.682 46.1743 37.2288 45.3889 38.1991 44.9065C40.314 43.8551 42.4163 42.7783 44.5528 41.7704C45.3016 41.4171 45.2673 41.1495 44.686 40.6939C42.929 39.3165 41.4074 37.725 40.1165 35.8323Z" fill="black"/>
<path d="M10.1559 44.8792C7.93131 45.9899 5.77428 47.0655 3.615 48.1366C2.27745 48.8001 0.948523 48.487 0.330332 47.3699C-0.355716 46.1302 0.0379915 44.7194 1.40757 44.0162C4.69462 42.3284 8.01944 40.7139 11.3242 39.0602C18.1514 35.6438 24.9833 32.2364 31.7912 28.7822C32.6525 28.3452 32.8826 28.4777 33.0471 29.3953C33.2056 30.279 33.4621 31.1668 33.8905 31.9792C34.2301 32.6232 34.104 32.9818 33.3906 33.3335C25.6563 37.1464 17.9422 40.9998 10.1559 44.8792Z" fill="black"/>
<path d="M52.8799 48.5584C54.6417 48.9443 56.3417 49.1463 58.1206 49.1386C57.9222 49.572 57.553 49.6063 57.2709 49.7442C48.9378 53.8152 40.6008 57.8787 32.2658 61.9459C31.2957 62.4193 30.3453 62.9322 29.3643 63.3827C27.8487 64.0786 26.5285 63.7091 25.895 62.4535C25.2859 61.2465 25.852 59.9461 27.3205 59.2267C34.5307 55.6946 41.7533 52.1862 48.9437 48.6167C49.9508 48.1167 50.8531 47.8718 51.9064 48.3434C52.1764 48.4643 52.4981 48.4764 52.8799 48.5584Z" fill="black"/>
<path d="M11.0892 20.6509C19.5935 16.4785 28.0346 12.3445 36.4757 8.21063C35.2494 10.304 34.1792 12.3873 33.39 14.6017C33.2528 14.9866 32.9623 15.1603 32.6255 15.3226C25.5509 18.7308 18.4791 22.1442 11.4025 25.5484C10.2128 26.1207 8.85066 25.7013 8.28779 24.626C7.68359 23.4718 8.1154 22.1664 9.3202 21.5379C9.88288 21.2443 10.457 20.9716 11.0892 20.6509Z" fill="black"/>
<path d="M22.9511 48.0711C20.2085 49.4129 17.5415 50.7384 14.861 52.0371C13.705 52.5971 12.7512 52.4841 11.9678 51.7667C11.2203 51.0821 11.064 50.2444 11.3726 49.3217C11.647 48.501 12.355 48.1057 13.0874 47.7462C20.147 44.2818 27.2051 40.8145 34.2647 37.3502C36.1062 36.4465 36.0958 36.4579 37.2744 38.148C37.7657 38.8527 38.3205 39.5146 38.8807 40.2403C33.5721 42.8524 28.2966 45.4481 22.9511 48.0711Z" fill="black"/>
<path d="M58.8896 37.5045C59.1632 38.7545 59.4229 39.9224 59.6873 41.0892C59.8168 41.661 59.6065 41.8731 58.9949 41.8297C55.4859 41.5806 52.2665 40.5671 49.3707 38.5718C45.1789 35.6834 42.6246 31.7585 41.658 26.8927C40.8525 22.8374 41.3532 18.8835 43.167 15.1203C43.8012 13.8044 43.913 13.8038 45.0978 14.7143C49.4083 18.0264 52.6557 22.1515 55.0798 26.9325C56.7794 30.2845 58.0103 33.7883 58.8896 37.5045Z" fill="#FDFDFE"/>
<path d="M63.2821 16.7805C61.5674 13.3811 60.5063 9.87635 60.1717 6.16018C60.0376 4.67012 60.1032 4.55157 61.5693 4.785C66.6623 5.59591 70.9635 7.78787 73.9914 12.0172C78.264 17.985 78.887 24.3545 75.9516 31.0625C75.7609 31.4985 75.6451 31.9667 75.009 31.4271C70.1562 27.31 66.1258 22.5562 63.2821 16.7805Z" fill="#FDFDFE"/>
<path d="M57.2271 9.92012C58.1327 14.3753 59.9432 18.3772 62.3113 22.1674C65.1701 26.743 68.8825 30.5878 72.9362 34.1509C74.0173 35.1012 74.011 35.1163 73.0022 36.1214C70.6294 38.4856 67.8862 40.2269 64.5394 40.9996C63.9052 41.1461 63.7145 41.0054 63.584 40.4125C62.9506 37.5342 62.3225 34.6555 61.3949 31.8454C59.087 24.8531 55.4716 18.6491 49.9654 13.5635C49.0251 12.6951 48.0092 11.9193 46.94 11.2144C46.36 10.8321 46.3731 10.5318 46.8383 10.0482C49.2648 7.52585 52.2896 6.05522 55.6569 5.14889C56.3981 4.9494 56.6055 5.20157 56.6642 5.90133C56.7749 7.22014 56.8284 8.55213 57.2271 9.92012Z" fill="#FCFDFE"/>
<path d="M95.3027 25V5.68H108.443V8.23H98.5727V14.08H107.333V16.6H98.5727V25H95.3027ZM108.063 25L115.443 5.68H119.103L126.423 25H123.063L121.143 20.02H113.373L111.453 25H108.063ZM113.883 17.5H120.603L117.243 8.65L113.883 17.5ZM133.848 25.3C131.348 25.3 129.338 24.98 127.818 24.34V21.46C128.678 21.78 129.598 22.04 130.578 22.24C131.578 22.44 132.568 22.54 133.548 22.54C135.088 22.54 136.238 22.36 136.998 22C137.778 21.64 138.168 20.92 138.168 19.84C138.168 19.18 138.008 18.65 137.688 18.25C137.368 17.85 136.838 17.51 136.098 17.23C135.358 16.93 134.338 16.62 133.038 16.3C130.958 15.76 129.498 15.08 128.658 14.26C127.818 13.42 127.398 12.27 127.398 10.81C127.398 9.11 128.018 7.78 129.258 6.82C130.498 5.86 132.348 5.38 134.808 5.38C135.928 5.38 136.978 5.46 137.958 5.62C138.958 5.78 139.738 5.96 140.298 6.16V9.04C138.778 8.46 137.098 8.17 135.258 8.17C133.818 8.17 132.698 8.36 131.898 8.74C131.098 9.12 130.698 9.81 130.698 10.81C130.698 11.39 130.838 11.86 131.118 12.22C131.398 12.58 131.878 12.89 132.558 13.15C133.258 13.41 134.218 13.7 135.438 14.02C137.018 14.42 138.238 14.9 139.098 15.46C139.978 16 140.588 16.64 140.928 17.38C141.288 18.1 141.468 18.92 141.468 19.84C141.468 21.54 140.838 22.88 139.578 23.86C138.318 24.82 136.408 25.3 133.848 25.3ZM148.447 25V8.23H142.267V5.68H157.867V8.23H151.717V25H148.447ZM95.3027 54V34.68H108.443V37.23H98.5727V43.08H107.333V45.6H98.5727V54H95.3027ZM119.585 54.3C116.525 54.3 114.235 53.5 112.715 51.9C111.195 50.28 110.435 47.78 110.435 44.4C110.435 40.88 111.195 38.33 112.715 36.75C114.235 35.17 116.525 34.38 119.585 34.38C122.665 34.38 124.955 35.17 126.455 36.75C127.975 38.33 128.735 40.88 128.735 44.4C128.735 47.78 127.975 50.28 126.455 51.9C124.955 53.5 122.665 54.3 119.585 54.3ZM119.585 51.54C121.605 51.54 123.085 50.99 124.025 49.89C124.985 48.77 125.465 46.94 125.465 44.4C125.465 41.72 124.985 39.85 124.025 38.79C123.085 37.71 121.605 37.17 119.585 37.17C117.585 37.17 116.105 37.71 115.145 38.79C114.205 39.85 113.735 41.72 113.735 44.4C113.735 46.94 114.205 48.77 115.145 49.89C116.105 50.99 117.585 51.54 119.585 51.54ZM134.653 54L130.153 34.68H133.363L136.633 49.17L140.293 37.02V34.68H142.963L147.073 49.17L150.403 34.68H153.583L149.113 54H145.903L142.033 40.47L137.923 54H134.653ZM153.385 54L160.765 34.68H164.425L171.745 54H168.385L166.465 49.02H158.695L156.775 54H153.385ZM159.205 46.5H165.925L162.565 37.65L159.205 46.5ZM174.961 54V34.68H183.841C186.001 34.68 187.571 35.24 188.551 36.36C189.551 37.46 190.051 38.96 190.051 40.86C190.051 42.22 189.711 43.38 189.031 44.34C188.351 45.3 187.371 45.97 186.091 46.35C186.451 46.61 186.731 46.89 186.931 47.19C187.131 47.49 187.331 47.89 187.531 48.39L189.961 54H186.601L184.231 48.6C184.011 48.08 183.741 47.71 183.421 47.49C183.121 47.27 182.601 47.16 181.861 47.16H178.231V54H174.961ZM178.231 44.52H182.971C184.151 44.52 185.081 44.23 185.761 43.65C186.441 43.07 186.781 42.14 186.781 40.86C186.781 38.44 185.611 37.23 183.271 37.23H178.231V44.52ZM193.271 54V34.68H201.101C203.961 34.68 206.081 35.44 207.461 36.96C208.841 38.46 209.531 40.96 209.531 44.46C209.531 47.76 208.851 50.18 207.491 51.72C206.131 53.24 204.001 54 201.101 54H193.271ZM196.541 51.48H200.591C201.851 51.48 202.901 51.3 203.741 50.94C204.581 50.56 205.211 49.86 205.631 48.84C206.051 47.82 206.261 46.36 206.261 44.46C206.261 42.56 206.071 41.09 205.691 40.05C205.311 39.01 204.701 38.28 203.861 37.86C203.041 37.44 201.951 37.23 200.591 37.23H196.541V51.48Z" fill="black"/>
</svg>
